<svg width="22" height="22" viewBox="0 0 22 22" fill="none" xmlns="http://www.w3.org/2000/svg">
<path d="M19.6429 2.35714H17.2857V0.785729C17.2857 0.351776 16.9339 0 16.5 0C16.066 0 15.7143 0.351776 15.7143 0.785729V2.35714H6.28569V0.785729C6.28569 0.351776 5.93392 0 5.50001 0C5.0661 0 4.71428 0.351776 4.71428 0.785729V2.35714H2.35714C1.05533 2.35714 0 3.41247 0 4.71428V19.6429C0 20.9447 1.05533 22 2.35714 22H19.6429C20.9447 22 22 20.9447 22 19.6429V4.71428C22 3.41247 20.9447 2.35714 19.6429 2.35714ZM20.4285 19.6429C20.4285 20.0768 20.0768 20.4286 19.6428 20.4286H2.35714C1.92319 20.4286 1.57141 20.0768 1.57141 19.6429V9.42857H20.4285V19.6429ZM20.4285 7.85715H1.57141V4.71428C1.57141 4.28033 1.92319 3.92855 2.35714 3.92855H4.71428V5.49997C4.71428 5.93392 5.06606 6.28569 5.50001 6.28569C5.93396 6.28569 6.28574 5.93392 6.28574 5.49997V3.92855H15.7143V5.49997C15.7143 5.93392 16.0661 6.28569 16.5 6.28569C16.934 6.28569 17.2858 5.93392 17.2858 5.49997V3.92855H19.6429C20.0769 3.92855 20.4286 4.28033 20.4286 4.71428V7.85715H20.4285Z" fill="#65AEB8"/>
<path d="M6.28597 11H4.71456C4.28061 11 3.92883 11.3518 3.92883 11.7857C3.92883 12.2197 4.28061 12.5715 4.71456 12.5715H6.28597C6.71993 12.5715 7.0717 12.2197 7.0717 11.7857C7.0717 11.3518 6.71993 11 6.28597 11Z" fill="#65AEB8"/>
<path d="M11.786 11H10.2146C9.78061 11 9.42883 11.3518 9.42883 11.7857C9.42883 12.2197 9.78061 12.5715 10.2146 12.5715H11.786C12.2199 12.5715 12.5717 12.2197 12.5717 11.7857C12.5717 11.3518 12.2199 11 11.786 11Z" fill="#65AEB8"/>
<path d="M17.286 11H15.7146C15.2806 11 14.9288 11.3518 14.9288 11.7857C14.9288 12.2197 15.2806 12.5715 15.7146 12.5715H17.286C17.7199 12.5715 18.0717 12.2197 18.0717 11.7857C18.0717 11.3518 17.7199 11 17.286 11Z" fill="#65AEB8"/>
<path d="M6.28597 14.1426H4.71456C4.28061 14.1426 3.92883 14.4944 3.92883 14.9283C3.92883 15.3623 4.28061 15.714 4.71456 15.714H6.28597C6.71993 15.714 7.0717 15.3623 7.0717 14.9283C7.0717 14.4944 6.71993 14.1426 6.28597 14.1426Z" fill="#65AEB8"/>
<path d="M11.786 14.1426H10.2146C9.78061 14.1426 9.42883 14.4944 9.42883 14.9283C9.42883 15.3623 9.78061 15.714 10.2146 15.714H11.786C12.2199 15.714 12.5717 15.3623 12.5717 14.9283C12.5717 14.4944 12.2199 14.1426 11.786 14.1426Z" fill="#65AEB8"/>
<path d="M17.286 14.1426H15.7146C15.2806 14.1426 14.9288 14.4944 14.9288 14.9283C14.9288 15.3623 15.2806 15.714 15.7146 15.714H17.286C17.7199 15.714 18.0717 15.3623 18.0717 14.9283C18.0717 14.4944 17.7199 14.1426 17.286 14.1426Z" fill="#65AEB8"/>
<path d="M6.28597 17.2856H4.71456C4.28061 17.2856 3.92883 17.6374 3.92883 18.0714C3.92883 18.5053 4.28061 18.8571 4.71456 18.8571H6.28597C6.71993 18.8571 7.0717 18.5053 7.0717 18.0713C7.0717 17.6374 6.71993 17.2856 6.28597 17.2856Z" fill="#65AEB8"/>
<path d="M11.786 17.2856H10.2146C9.78061 17.2856 9.42883 17.6374 9.42883 18.0714C9.42883 18.5053 9.78061 18.8571 10.2146 18.8571H11.786C12.2199 18.8571 12.5717 18.5053 12.5717 18.0714C12.5717 17.6374 12.2199 17.2856 11.786 17.2856Z" fill="#65AEB8"/>
<path d="M17.286 17.2856H15.7146C15.2806 17.2856 14.9288 17.6374 14.9288 18.0714C14.9288 18.5053 15.2806 18.8571 15.7146 18.8571H17.286C17.7199 18.8571 18.0717 18.5053 18.0717 18.0714C18.0717 17.6374 17.7199 17.2856 17.286 17.2856Z" fill="#65AEB8"/>
</svg>
