<svg width="0" height="0" class="hidden">
  <symbol xmlns="http://www.w3.org/2000/svg" viewBox="0 0 12 22" id="prev">
    <path opacity=".5" d="M.253 11.604L10.53 21.75a.868.868 0 001.218-.002.847.847 0 00-.001-1.205L2.08 11l9.666-9.544a.847.847 0 00.002-1.205.864.864 0 00-1.219-.002L.253 10.396a.847.847 0 000 1.208z"></path>
  </symbol>
  <symbol xmlns="http://www.w3.org/2000/svg" viewBox="0 0 12 22" id="next">
    <path opacity=".5" d="M11.747 10.396L1.47.25a.868.868 0 00-1.218 0 .847.847 0 00.001 1.205L9.92 11 .253 20.544a.847.847 0 00-.002 1.205.864.864 0 001.219.002l10.277-10.147a.847.847 0 000-1.208z"></path>
  </symbol>

</svg>